<mxfile host="app.diagrams.net" modified="2023-10-16T15:47:50.338Z" agent="Mozilla/5.0 (Windows NT 10.0; Win64; x64) AppleWebKit/537.36 (KHTML, like Gecko) Chrome/118.0.0.0 Safari/537.36" etag="0sle71AmVE_9bH5Zch44" version="22.0.4" type="github">
  <diagram name="Page-1" id="aQ-0_9-Fyp5eesQCCfd_">
    <mxGraphModel dx="794" dy="456" grid="1" gridSize="10" guides="1" tooltips="1" connect="1" arrows="1" fold="1" page="1" pageScale="1" pageWidth="850" pageHeight="1100" math="0" shadow="0">
      <root>
        <mxCell id="0" />
        <mxCell id="1" parent="0" />
        <mxCell id="oLp5ZzWM8y31IEe4S4pO-1" value="" style="sketch=0;aspect=fixed;pointerEvents=1;shadow=0;dashed=0;html=1;strokeColor=none;labelPosition=center;verticalLabelPosition=bottom;verticalAlign=top;align=center;fillColor=#00188D;shape=mxgraph.azure.computer" vertex="1" parent="1">
          <mxGeometry x="140" y="310" width="122.22" height="110" as="geometry" />
        </mxCell>
        <mxCell id="oLp5ZzWM8y31IEe4S4pO-2" value="" style="sketch=0;aspect=fixed;pointerEvents=1;shadow=0;dashed=0;html=1;strokeColor=none;labelPosition=center;verticalLabelPosition=bottom;verticalAlign=top;align=center;fillColor=#00188D;shape=mxgraph.azure.computer" vertex="1" parent="1">
          <mxGeometry x="530" y="220" width="122.22" height="110" as="geometry" />
        </mxCell>
        <mxCell id="oLp5ZzWM8y31IEe4S4pO-3" value="&lt;font style=&quot;font-size: 18px;&quot;&gt;&lt;b&gt;Client 2&lt;/b&gt;&lt;/font&gt;" style="text;html=1;strokeColor=none;fillColor=none;align=center;verticalAlign=middle;whiteSpace=wrap;rounded=0;" vertex="1" parent="1">
          <mxGeometry x="165.56" y="340" width="71.11" height="30" as="geometry" />
        </mxCell>
        <mxCell id="oLp5ZzWM8y31IEe4S4pO-4" value="&lt;font style=&quot;font-size: 18px;&quot;&gt;&lt;b&gt;Server&lt;/b&gt;&lt;/font&gt;" style="text;html=1;strokeColor=none;fillColor=none;align=center;verticalAlign=middle;whiteSpace=wrap;rounded=0;" vertex="1" parent="1">
          <mxGeometry x="561.11" y="250" width="60" height="30" as="geometry" />
        </mxCell>
        <mxCell id="oLp5ZzWM8y31IEe4S4pO-5" value="" style="sketch=0;aspect=fixed;pointerEvents=1;shadow=0;dashed=0;html=1;strokeColor=none;labelPosition=center;verticalLabelPosition=bottom;verticalAlign=top;align=center;fillColor=#00188D;shape=mxgraph.azure.computer" vertex="1" parent="1">
          <mxGeometry x="530" y="50" width="122.22" height="110" as="geometry" />
        </mxCell>
        <mxCell id="oLp5ZzWM8y31IEe4S4pO-7" value="" style="sketch=0;aspect=fixed;pointerEvents=1;shadow=0;dashed=0;html=1;strokeColor=none;labelPosition=center;verticalLabelPosition=bottom;verticalAlign=top;align=center;fillColor=#00188D;shape=mxgraph.azure.computer" vertex="1" parent="1">
          <mxGeometry x="530" y="390" width="122.22" height="110" as="geometry" />
        </mxCell>
        <mxCell id="oLp5ZzWM8y31IEe4S4pO-8" value="&lt;font style=&quot;font-size: 18px;&quot;&gt;&lt;b&gt;Replica 1&lt;/b&gt;&lt;/font&gt;" style="text;html=1;strokeColor=none;fillColor=none;align=center;verticalAlign=middle;whiteSpace=wrap;rounded=0;" vertex="1" parent="1">
          <mxGeometry x="545.56" y="80" width="91.11" height="30" as="geometry" />
        </mxCell>
        <mxCell id="oLp5ZzWM8y31IEe4S4pO-9" value="&lt;font style=&quot;font-size: 18px;&quot;&gt;&lt;b&gt;Replica 2&lt;/b&gt;&lt;/font&gt;" style="text;html=1;strokeColor=none;fillColor=none;align=center;verticalAlign=middle;whiteSpace=wrap;rounded=0;" vertex="1" parent="1">
          <mxGeometry x="545.55" y="420" width="91.11" height="30" as="geometry" />
        </mxCell>
        <mxCell id="oLp5ZzWM8y31IEe4S4pO-10" value="" style="sketch=0;aspect=fixed;pointerEvents=1;shadow=0;dashed=0;html=1;strokeColor=none;labelPosition=center;verticalLabelPosition=bottom;verticalAlign=top;align=center;fillColor=#00188D;shape=mxgraph.azure.computer" vertex="1" parent="1">
          <mxGeometry x="140" y="130" width="122.22" height="110" as="geometry" />
        </mxCell>
        <mxCell id="oLp5ZzWM8y31IEe4S4pO-11" value="&lt;font style=&quot;font-size: 18px;&quot;&gt;&lt;b&gt;Client 1&lt;/b&gt;&lt;/font&gt;" style="text;html=1;strokeColor=none;fillColor=none;align=center;verticalAlign=middle;whiteSpace=wrap;rounded=0;" vertex="1" parent="1">
          <mxGeometry x="165.56" y="160" width="71.11" height="30" as="geometry" />
        </mxCell>
        <mxCell id="oLp5ZzWM8y31IEe4S4pO-12" value="" style="endArrow=classic;startArrow=classic;html=1;rounded=0;exitX=0.971;exitY=0.418;exitDx=0;exitDy=0;exitPerimeter=0;entryX=0;entryY=0.5;entryDx=0;entryDy=0;entryPerimeter=0;" edge="1" parent="1" source="oLp5ZzWM8y31IEe4S4pO-10" target="oLp5ZzWM8y31IEe4S4pO-2">
          <mxGeometry width="50" height="50" relative="1" as="geometry">
            <mxPoint x="380" y="350" as="sourcePoint" />
            <mxPoint x="430" y="300" as="targetPoint" />
          </mxGeometry>
        </mxCell>
        <mxCell id="oLp5ZzWM8y31IEe4S4pO-13" value="" style="endArrow=classic;startArrow=classic;html=1;rounded=0;exitX=0.998;exitY=0.406;exitDx=0;exitDy=0;exitPerimeter=0;entryX=-0.022;entryY=0.43;entryDx=0;entryDy=0;entryPerimeter=0;" edge="1" parent="1" source="oLp5ZzWM8y31IEe4S4pO-1" target="oLp5ZzWM8y31IEe4S4pO-7">
          <mxGeometry width="50" height="50" relative="1" as="geometry">
            <mxPoint x="380" y="350" as="sourcePoint" />
            <mxPoint x="430" y="300" as="targetPoint" />
          </mxGeometry>
        </mxCell>
        <mxCell id="oLp5ZzWM8y31IEe4S4pO-14" value="&lt;font style=&quot;font-size: 14px;&quot;&gt;&lt;b&gt;Replica can provide only read operation.&lt;/b&gt;&lt;/font&gt;" style="text;html=1;strokeColor=none;fillColor=none;align=center;verticalAlign=middle;whiteSpace=wrap;rounded=0;" vertex="1" parent="1">
          <mxGeometry x="290" y="390" width="120" height="50" as="geometry" />
        </mxCell>
        <mxCell id="oLp5ZzWM8y31IEe4S4pO-15" value="&lt;b&gt;&lt;font style=&quot;font-size: 14px;&quot;&gt;Server can provide both read and write operations&lt;/font&gt;&lt;/b&gt;" style="text;html=1;strokeColor=none;fillColor=none;align=center;verticalAlign=middle;whiteSpace=wrap;rounded=0;" vertex="1" parent="1">
          <mxGeometry x="290" y="220" width="110" height="70" as="geometry" />
        </mxCell>
        <mxCell id="oLp5ZzWM8y31IEe4S4pO-19" value="" style="endArrow=classic;startArrow=classic;html=1;rounded=0;dashed=1;entryX=0.5;entryY=1;entryDx=0;entryDy=0;entryPerimeter=0;exitX=0.5;exitY=0;exitDx=0;exitDy=0;exitPerimeter=0;" edge="1" parent="1" source="oLp5ZzWM8y31IEe4S4pO-7" target="oLp5ZzWM8y31IEe4S4pO-2">
          <mxGeometry width="50" height="50" relative="1" as="geometry">
            <mxPoint x="380" y="340" as="sourcePoint" />
            <mxPoint x="430" y="290" as="targetPoint" />
          </mxGeometry>
        </mxCell>
        <mxCell id="oLp5ZzWM8y31IEe4S4pO-20" value="" style="endArrow=classic;startArrow=classic;html=1;rounded=0;dashed=1;entryX=0.5;entryY=1;entryDx=0;entryDy=0;entryPerimeter=0;exitX=0.5;exitY=0;exitDx=0;exitDy=0;exitPerimeter=0;" edge="1" parent="1">
          <mxGeometry width="50" height="50" relative="1" as="geometry">
            <mxPoint x="590.62" y="220" as="sourcePoint" />
            <mxPoint x="590.62" y="160" as="targetPoint" />
          </mxGeometry>
        </mxCell>
        <mxCell id="oLp5ZzWM8y31IEe4S4pO-21" value="&lt;b&gt;&lt;font style=&quot;font-size: 14px;&quot;&gt;Server replicates into two replicas after a write operation&lt;/font&gt;&lt;/b&gt;" style="text;html=1;strokeColor=none;fillColor=none;align=center;verticalAlign=middle;whiteSpace=wrap;rounded=0;" vertex="1" parent="1">
          <mxGeometry x="660" y="230" width="127.78" height="70" as="geometry" />
        </mxCell>
      </root>
    </mxGraphModel>
  </diagram>
</mxfile>
